PathFileType	3	(X/Y/Z)	F:\ViconData\AntennenMessung\Messung1\Session1\ID22.trc
DataRate	CameraRate	NumFrames	NumMarkers	Units	OrigDataRate	OrigDataStartFrame	OrigNumFrames
120.0	120.0	5	70	mm	120.0	266	1060	
Frame#	Time	Ashort			Along			Atop			A4			Bshort			Blong			Btop			B4			Cshort			Clong			Ctop			C4			Dshort			Dlong			Dtop			D4			Eshort			Elong			Etop			E4			Fshort			Flong			Ftop			F4			Gshort			Glong			Gtop			G4			Hshort			Hlong			Htop			H4			I1			I2			I3			I4			I5			WandAshort			WandAlong			WandAtop			WandA4			WandA15			WandBshort			WandB4			WandB5			WandBtop			WandBlong			WandCshort			WandClong			WandCtop			WandC4			WandC5			Acenter			Aantenna			Bcenter			Bantenna			Ccenter			Cantenna			Dcenter			Dantenna			Ecenter			Eantenna			Fcenter			Fantenna			Gcenter			Gantenna			Hcenter			Hantenna			Icenter			Iantenna			
		X1	Y1	Z1	X2	Y2	Z2	X3	Y3	Z3	X4	Y4	Z4	X5	Y5	Z5	X6	Y6	Z6	X7	Y7	Z7	X8	Y8	Z8	X9	Y9	Z9	X10	Y10	Z10	X11	Y11	Z11	X12	Y12	Z12	X13	Y13	Z13	X14	Y14	Z14	X15	Y15	Z15	X16	Y16	Z16	X17	Y17	Z17	X18	Y18	Z18	X19	Y19	Z19	X20	Y20	Z20	X21	Y21	Z21	X22	Y22	Z22	X23	Y23	Z23	X24	Y24	Z24	X25	Y25	Z25	X26	Y26	Z26	X27	Y27	Z27	X28	Y28	Z28	X29	Y29	Z29	X30	Y30	Z30	X31	Y31	Z31	X32	Y32	Z32	X33	Y33	Z33	X34	Y34	Z34	X35	Y35	Z35	X36	Y36	Z36	X37	Y37	Z37	X38	Y38	Z38	X39	Y39	Z39	X40	Y40	Z40	X41	Y41	Z41	X42	Y42	Z42	X43	Y43	Z43	X44	Y44	Z44	X45	Y45	Z45	X46	Y46	Z46	X47	Y47	Z47	X48	Y48	Z48	X49	Y49	Z49	X50	Y50	Z50	X51	Y51	Z51	X52	Y52	Z52	X53	Y53	Z53	X54	Y54	Z54	X55	Y55	Z55	X56	Y56	Z56	X57	Y57	Z57	X58	Y58	Z58	X59	Y59	Z59	X60	Y60	Z60	X61	Y61	Z61	X62	Y62	Z62	X63	Y63	Z63	X64	Y64	Z64	X65	Y65	Z65	X66	Y66	Z66	X67	Y67	Z67	X68	Y68	Z68	X69	Y69	Z69	X70	Y70	Z70	
266	2.2083333	-1038.2013	214.64525	-1644.0715	-1109.5327	203.92776	-1599.4579	-1063.6011	172.9716	-1625.8693	-1054.1334	262.38895	-1634.8641	-1352.5018	235.18355	1003.5184	-1281.3433	227.46194	1052.0101	-1322.5739	194.04301	1020.8176	-1284.4083	287.98871	1052.5892	813.97906	187.66331	1209.3499	892.4126	178.60985	1178.9946	844.5141	145.50095	1198.192	861.13702	292.43979	1168.2562	1115.8013	210.05795	-1401.8173	1056.3105	194.12178	-1460.1821	1094.9036	162.06911	-1423.8079	1069.7195	239.50906	-1426.2499	-1204.5693	1686.0255	-1563.1932	-1129.1415	1688.407	-1606.0446	-1173.2178	1724.5103	-1581.9019	-1134.009	1581.0848	-1603.958	-1239.6188	1699.1046	1119.5161	-1309.2677	1698.6115	1071.8864	-1270.4601	1736.3108	1096.9238	-1245.6326	1592.8157	1110.6992	988.85327	1664.2379	1162.1078	957.24469	1700.5833	1183.8361	921.88379	1662.2942	1214.8362	939.78772	1659.4573	1159.7197	999.02252	1668.5063	-1579.5018	1058.9314	1670.1781	-1518.7515	1025.0116	1708.1077	-1551.203	1059.3015	1672.1886	-1585.4794	-272.48849	1636.6848	-231.85413	-187.52866	1640.0813	-237.76222	-235.76323	1675.2056	-234.0076	-233.49487	1637.7548	-202.73622	-239.44196	1639.1978	-281.4169																																														-1068.649	210.07051	-1625.0281	-1073.906	248.70464	-1624.1525	-1321.2173	231.78879	1024.8374	-1319.8246	270.54474	1028.9648	848.12903	183.72142	1196.1332	851.79608	222.49245	1194.0448	1088.6036	202.77237	-1428.5	1082.6766	241.06573	-1432.9146	-1171.9384	1687.0555	-1581.7311	-1170.6067	1648.0789	-1581.5535	-1270.979	1698.8826	1098.0702	-1271.5194	1659.9045	1099.264	952.7204	1705.7854	1186.9462	972.70807	1733.9756	1168.8683	1026.5181	1669.2734	-1551.62	1028.0299	1630.3052	-1552.0387	-234.31909	1638.2107	-234.50841	-232.79797	1599.2439	-235.03593
267	2.2166667	-1038.2153	214.66479	-1644.0532	-1109.4486	204.25893	-1599.3374	-1063.5848	172.98851	-1625.8882	-1054.1169	262.4082	-1634.8569	-1352.4813	235.22112	1003.3179	-1281.3159	227.50017	1052.1097	-1322.6101	194.03839	1020.8015	-1284.4409	288.02563	1052.5891	813.89966	187.73715	1209.3369	892.4765	178.80965	1178.8071	844.55975	145.34567	1198.3629	861.06659	292.27481	1168.1239	1115.803	210.05344	-1401.8112	1056.2783	194.11029	-1460.2129	1094.9299	162.13266	-1423.824	1069.704	239.54486	-1426.2261	-1204.5616	1686.0154	-1563.1895	-1129.1479	1688.3818	-1606.0266	-1173.2229	1724.5311	-1581.9044	-1134.0247	1581.12	-1603.9601	-1239.6257	1699.1005	1119.5099	-1309.2777	1698.6194	1071.8838	-1270.4821	1736.3409	1096.9375	-1244.954	1593.6107	1106.504	988.84985	1664.2341	1162.1055	957.18164	1700.5905	1183.8325	921.77576	1662.3186	1214.8257	939.78271	1659.5034	1159.6932	999.0238	1668.5083	-1579.5026	1058.937	1670.1781	-1518.7394	1025.0027	1708.0938	-1551.1993	1059.317	1672.1979	-1585.4751	-272.49426	1636.7007	-231.84671	-187.52942	1640.0807	-237.77231	-235.75665	1675.2155	-234.0105	-233.49504	1637.7687	-202.77518	-239.43707	1639.2081	-281.42441																																														-1068.4968	210.2412	-1625.0442	-1073.594	248.89676	-1624.1685	-1321.2186	231.82932	1024.752	-1319.7913	270.59198	1028.8041	848.04449	183.85777	1196.0704	851.55298	222.631	1193.7623	1088.6172	202.77197	-1428.484	1082.6691	241.06477	-1432.875	-1171.941	1687.0389	-1581.7188	-1170.6085	1648.0621	-1581.526	-1270.9923	1698.8838	1098.0621	-1271.5233	1659.9049	1099.2325	952.61597	1705.832	1186.965	972.60455	1734.0345	1168.9075	1026.5138	1669.2743	-1551.6226	1028.0308	1630.3062	-1552.0472	-234.31966	1638.2192	-234.50905	-232.80612	1599.2521	-235.03418
268	2.225	-1038.2161	214.66135	-1644.0629	-1109.4604	204.2608	-1599.3434	-1063.7272	173.37965	-1625.5519	-1054.1161	262.38779	-1634.85	-1352.4952	235.2408	1003.4535	-1281.4146	227.28571	1052.1201	-1322.4882	194.06407	1020.7033	-1284.4668	287.99911	1052.6151	814.02197	187.52835	1209.2969	892.4447	178.70367	1178.8691	844.50085	145.48016	1198.2111	861.20673	292.4165	1168.3441	1115.8022	210.04546	-1401.8142	1056.2827	194.14929	-1460.2238	1094.9027	162.12415	-1423.8669	1069.6914	239.52435	-1426.2583	-1204.5658	1686.012	-1563.1951	-1129.1499	1688.3923	-1606.0214	-1173.2168	1724.5206	-1581.9045	-1134.0228	1581.1074	-1603.9508	-1239.5942	1699.0654	1119.4958	-1309.3514	1698.7224	1071.9221	-1270.4728	1736.3243	1096.9321	-1245.6332	1592.8145	1110.6625	988.8493	1664.2072	1162.1144	957.22412	1700.5416	1183.8101	921.88257	1662.3242	1214.8263	939.81305	1659.4595	1159.7366	999.02753	1668.4889	-1579.4652	1058.9097	1670.1746	-1518.7445	1024.991	1708.0918	-1551.1981	1059.3014	1672.1813	-1585.4751	-272.48602	1636.6821	-231.84875	-187.52525	1640.0714	-237.76657	-235.74922	1675.2045	-234.00563	-233.48083	1637.7682	-202.77	-239.44016	1639.1984	-281.42209																																														-1068.7089	210.20987	-1624.9227	-1073.9358	248.85239	-1624.2628	-1321.1538	231.73317	1024.9117	-1319.7816	270.46802	1029.2394	847.98987	183.70604	1196.1173	851.5296	222.48694	1193.9932	1088.6001	202.78043	-1428.5092	1082.6632	241.07707	-1432.8818	-1171.9327	1687.0419	-1581.7263	-1170.5973	1648.0652	-1581.541	-1271.0476	1698.9106	1098.0449	-1271.6465	1659.9325	1099.2042	952.66913	1705.7747	1186.9348	972.6424	1733.9641	1168.8398	1026.4999	1669.2622	-1551.608	1028.0142	1630.2937	-1552.0198	-234.30826	1638.2051	-234.50797	-232.7907	1599.2382	-235.03703
269	2.2333333	-1038.1995	214.66179	-1644.0658	-1109.5332	203.98531	-1599.5134	-1063.6218	173.08664	-1625.7816	-1054.1201	262.41174	-1634.8546	-1352.5455	235.10576	1003.4107	-1281.3033	227.48141	1052.0653	-1322.5933	194.03806	1020.7977	-1284.6246	287.92645	1052.7203	813.91138	187.50546	1209.2859	892.47198	178.70877	1178.8673	844.55823	145.41859	1198.3523	861.12488	292.37357	1168.1665	1115.8036	210.07216	-1401.8445	1056.3053	194.07187	-1460.1608	1094.8805	162.04631	-1423.8373	1069.6908	239.56592	-1426.2606	-1204.5635	1686.0225	-1563.1892	-1129.1912	1688.5028	-1606.5406	-1173.2244	1724.5261	-1581.9117	-1134.0188	1581.0907	-1603.928	-1239.598	1699.0687	1119.4989	-1309.413	1698.824	1071.9645	-1270.4622	1736.3064	1096.9163	-1245.665	1592.8065	1110.6475	988.82404	1664.2114	1162.1232	957.23193	1700.5671	1183.8455	921.93176	1662.2715	1214.7811	939.82825	1659.4645	1159.698	999.026	1668.4742	-1579.4528	1058.9209	1670.1825	-1518.7454	1024.9891	1708.0782	-1551.1913	1059.2919	1672.1897	-1585.4738	-272.48169	1636.6796	-231.85825	-187.52249	1640.072	-237.76978	-235.76392	1675.2047	-234.01448	-233.48302	1637.7666	-202.77794	-239.43433	1639.2056	-281.43008																																														-1068.6879	210.09857	-1625.0236	-1073.9758	248.73032	-1624.2324	-1321.2694	231.75859	1024.7705	-1319.9092	270.52048	1028.8528	847.97089	183.6917	1196.098	851.42877	222.4709	1193.8138	1088.5558	202.74466	-1428.5509	1082.6058	241.03218	-1432.9854	-1171.9973	1687.0941	-1581.92	-1170.7197	1648.115	-1581.9288	-1271.1022	1698.9583	1098.0488	-1271.7701	1659.9818	1099.2307	952.76257	1705.7103	1186.9185	972.76434	1733.8915	1168.8424	1026.5081	1669.2579	-1551.5977	1028.033	1630.2899	-1552.0054	-234.32115	1638.2032	-234.51347	-232.80176	1599.2363	-235.039
270	2.2416667	-1038.1943	214.69919	-1644.0645	-1109.5621	203.93112	-1599.4475	-1063.613	173.1353	-1625.7781	-1054.121	262.39438	-1634.8522	-1352.5659	235.2211	1003.513	-1281.2947	227.46274	1052.0687	-1322.5372	194.06937	1020.7875	-1284.4691	287.99957	1052.5543	813.92554	187.69868	1209.3494	892.48163	178.65308	1178.9181	844.51172	145.45946	1198.2672	861.21167	292.39984	1169.2112	1115.8082	210.08734	-1401.8212	1056.2805	194.13492	-1460.1622	1094.8514	162.02554	-1423.8162	1069.6959	239.55627	-1426.2426	-1204.5566	1686.0226	-1563.1935	-1129.1357	1688.3678	-1606.0266	-1173.226	1724.516	-1581.8982	-1134.0134	1581.1023	-1603.9448	-1239.6085	1699.0778	1119.5038	-1309.4493	1698.8794	1071.9805	-1270.4651	1736.2994	1096.9218	-1245.6825	1592.8623	1110.6774	988.8573	1664.2136	1162.1119	957.20215	1700.5706	1183.8646	921.84277	1662.2905	1214.8669	939.84631	1659.4762	1159.7164	999.02325	1668.4753	-1579.4607	1058.9189	1670.1787	-1518.7465	1024.9817	1708.0791	-1551.1926	1059.3	1672.2062	-1585.4784	-272.48428	1636.6777	-231.84718	-187.88182	1640.0471	-238.12505	-235.75632	1675.2076	-234.0022	-233.49161	1637.7798	-202.76343	-239.43312	1639.2112	-281.42654																																														-1068.6993	210.09654	-1624.9934	-1074.015	248.72388	-1624.1736	-1321.2126	231.80806	1024.8733	-1319.8525	270.55792	1029.0686	848.08881	183.76482	1196.1151	851.70935	222.53525	1193.9368	1088.5524	202.78326	-1428.5336	1082.6343	241.07599	-1432.9656	-1171.9534	1687.0364	-1581.7095	-1170.6299	1648.0593	-1581.5132	-1271.1301	1698.988	1098.0548	-1271.8247	1660.0122	1099.2384	952.65314	1705.7952	1186.9904	972.62714	1733.9988	1168.9183	1026.5035	1669.2568	-1551.6047	1028.0311	1630.2889	-1552.0186	-234.3325	1638.197	-234.67819	-232.8335	1599.2323	-235.38988
